<?xml version="1.0" encoding="utf-8"?>
<!-- Generator: Adobe Illustrator 25.4.1, SVG Export Plug-In . SVG Version: 6.00 Build 0)  -->
<svg version="1.1" id="Capa_1" xmlns="http://www.w3.org/2000/svg" xmlns:xlink="http://www.w3.org/1999/xlink" x="0px" y="0px"
	 viewBox="0 0 882 160" style="enable-background:new 0 0 882 160;" xml:space="preserve">
<style type="text/css">
	.st0{fill:#FFFFFF;}
	.st1{fill:#E30613;stroke:#E30613;stroke-width:0.4171;stroke-miterlimit:10;}
	.st2{fill:#004899;}
	.st3{fill:#E30613;}
	.st4{fill:#009FE3;}
	.st5{fill:#FFFFFF;stroke:#FFFFFF;stroke-miterlimit:10;}
</style>
<circle class="st0" cx="96.3" cy="80.3" r="79.8"/>
<g>
	<path class="st1" d="M31.9,67.3l-8.8-4.5c-0.3-0.1-0.4-0.3-0.6-0.6c-0.1-0.3-0.1-0.6,0-0.9l1.7-5.7c0.1-0.2,0.2-0.4,0.4-0.5
		c0.2-0.1,0.4-0.1,0.6-0.1c0.3,0.1,0.5,0.3,0.6,0.6c0.1,0.3,0.2,0.6,0.1,0.9L24.5,61l2.8,1.5l1-3.4c0.1-0.2,0.2-0.4,0.4-0.5
		c0.2-0.1,0.4-0.1,0.6-0.1c0.3,0.1,0.4,0.3,0.6,0.5c0.1,0.3,0.1,0.6,0.1,0.9l-1,3.4l2.9,1.5l1.4-4.8c0.1-0.2,0.2-0.4,0.4-0.5
		c0.2-0.1,0.4-0.1,0.6-0.1c0.3,0.1,0.5,0.3,0.6,0.5c0.1,0.3,0.1,0.6,0.1,0.9l-1.7,5.9c-0.1,0.3-0.2,0.5-0.5,0.6
		c-0.2,0.1-0.4,0.1-0.6,0C32,67.3,32,67.3,31.9,67.3z"/>
	<path class="st1" d="M34.2,58.3c-0.2-0.1-0.3-0.3-0.4-0.5c-0.1-0.2-0.1-0.5,0-0.7c0.1-0.2,0.2-0.3,0.5-0.5c0.7-0.3,1.2-0.9,1.5-1.6
		c0.2-0.4,0.3-0.8,0.3-1.1c0-0.3-0.1-0.5-0.3-0.6c-0.2-0.1-0.4-0.1-0.6,0.1c-0.2,0.1-0.4,0.3-0.6,0.5c-0.2,0.2-0.5,0.5-0.7,0.7
		c-0.3,0.3-0.5,0.5-0.8,0.7c-0.3,0.2-0.6,0.3-0.9,0.4c-0.3,0.1-0.7,0-1-0.1c-0.5-0.2-0.9-0.6-1.1-1.1c-0.2-0.5-0.3-1-0.2-1.5
		c0.1-0.5,0.2-1.1,0.5-1.7c0.3-0.6,0.6-1.1,1.1-1.5c0.4-0.4,0.9-0.6,1.2-0.7c0.2,0,0.3,0,0.5,0.1c0.2,0.1,0.3,0.3,0.4,0.5
		c0.1,0.2,0.1,0.5-0.1,0.7c-0.1,0.2-0.3,0.3-0.5,0.5c-0.5,0.3-1,0.7-1.2,1.3c-0.2,0.4-0.2,0.7-0.2,0.9c0,0.3,0.1,0.4,0.3,0.5
		c0.2,0.1,0.3,0.1,0.5,0c0.2-0.1,0.4-0.2,0.6-0.4c0.2-0.2,0.4-0.4,0.6-0.6c0.2-0.2,0.4-0.4,0.7-0.6c0.2-0.2,0.5-0.4,0.7-0.5
		c0.2-0.1,0.5-0.2,0.8-0.3c0.3,0,0.6,0,0.8,0.1c0.8,0.4,1.2,1,1.4,1.8c0.1,0.8-0.1,1.8-0.6,3c-0.3,0.7-0.7,1.2-1.2,1.6
		c-0.5,0.4-0.9,0.6-1.3,0.7C34.5,58.4,34.3,58.4,34.2,58.3z"/>
	<path class="st1" d="M36.8,50.1c-0.6-0.4-1.1-0.8-1.5-1.3c-0.4-0.5-0.7-1-0.9-1.7c-0.2-0.6-0.2-1.3-0.1-2c0.1-0.7,0.4-1.4,0.9-2.1
		c0.2-0.3,0.5-0.6,0.7-0.8c0.3-0.2,0.5-0.4,0.8-0.5c0.3-0.1,0.5-0.2,0.7-0.2c0.2,0,0.3-0.1,0.5-0.1c0.2,0,0.3,0,0.4,0.1
		c0.2,0.1,0.3,0.3,0.3,0.6c0,0.2,0,0.5-0.1,0.7c-0.2,0.2-0.4,0.4-0.6,0.4c-0.6,0.1-1.1,0.5-1.5,1c-0.4,0.7-0.5,1.4-0.2,2.2
		c0.3,0.8,0.9,1.4,1.7,2c0.9,0.6,1.7,0.5,2.3-0.4c0.1-0.1,0.2-0.3,0.2-0.4c0.1-0.1,0.1-0.3,0.1-0.5c0-0.2,0.1-0.3,0.1-0.4
		c0-0.1,0-0.2,0-0.4c0-0.2,0-0.3,0-0.3c0-0.2,0.1-0.4,0.2-0.6c0.1-0.2,0.3-0.3,0.5-0.4c0.2-0.1,0.4,0,0.6,0.1
		c0.2,0.1,0.3,0.4,0.4,0.7c0,1.1-0.3,2.2-1,3.3c-0.6,0.9-1.3,1.5-2.1,1.7C38.5,50.8,37.6,50.6,36.8,50.1z"/>
	<path class="st1" d="M42.4,43.3c-0.2-0.1-0.4-0.4-0.6-0.7l-2.5-3.3C39,39.2,39,38.9,39,38.6c0-0.3,0.1-0.6,0.3-0.8
		c0.2-0.2,0.4-0.3,0.6-0.3c0.2,0,0.3,0.1,0.5,0.2c0,0,0.1,0.1,0.1,0.1l2.5,3.3c0.1,0.2,0.2,0.3,0.3,0.4c0.2,0.2,0.5,0.3,0.8,0.3
		c0.3,0,0.6-0.3,1-0.7c0.8-0.9,0.8-1.7,0.1-2.5l-2.5-3.3c-0.2-0.2-0.2-0.5-0.2-0.8c0-0.3,0.1-0.6,0.3-0.8c0.2-0.2,0.4-0.3,0.6-0.3
		c0.2,0,0.4,0.1,0.5,0.2c0,0,0.1,0.1,0.1,0.1l2.5,3.3c0.2,0.3,0.4,0.6,0.6,0.9c0.1,0.3,0.3,0.6,0.3,0.9c0.1,0.4,0.1,0.7,0,1.1
		c-0.1,0.3-0.2,0.7-0.4,1.2c-0.2,0.4-0.5,0.9-0.9,1.3c-0.8,0.9-1.5,1.4-2.2,1.5C43.5,44,42.9,43.8,42.4,43.3z"/>
	<path class="st1" d="M48,36.1c-0.5-0.5-0.8-1.1-1-1.7c-0.2-0.6-0.4-1.2-0.4-1.8c0-0.6,0.1-1.3,0.4-1.9c0.3-0.7,0.8-1.3,1.4-1.8
		c0.3-0.3,0.6-0.5,0.9-0.6c0.3-0.2,0.6-0.2,0.9-0.3c0.3,0,0.5-0.1,0.7,0c0.2,0,0.4,0,0.5,0.1c0.1,0,0.3,0.1,0.4,0.2
		c0.1,0.2,0.2,0.4,0.2,0.6c0,0.2-0.1,0.5-0.3,0.6c-0.2,0.2-0.5,0.3-0.7,0.2c-0.6-0.1-1.2,0.1-1.7,0.6c-0.6,0.5-0.9,1.2-0.8,2
		c0.1,0.8,0.4,1.6,1.1,2.3c0.7,0.9,1.5,0.9,2.4,0.2c0.1-0.1,0.2-0.2,0.3-0.3c0.1-0.1,0.2-0.3,0.3-0.4c0.1-0.2,0.1-0.3,0.2-0.3
		c0-0.1,0.1-0.2,0.1-0.4c0.1-0.2,0.1-0.3,0.1-0.3c0.1-0.2,0.2-0.4,0.3-0.5c0.2-0.2,0.4-0.2,0.6-0.2c0.2,0,0.4,0.1,0.6,0.3
		c0.2,0.2,0.2,0.5,0.1,0.8c-0.3,1.1-0.9,2-1.8,2.9c-0.8,0.7-1.6,1.1-2.4,1C49.4,37.2,48.6,36.8,48,36.1z"/>
	<path class="st1" d="M55.6,32.5l-4.1-10.1c-0.1-0.2-0.1-0.5,0-0.8c0.1-0.3,0.3-0.5,0.5-0.7c0.2-0.2,0.5-0.2,0.7-0.1
		c0.2,0,0.3,0.2,0.4,0.3c0,0,0.1,0.1,0.1,0.1l1.7,4.1c0.1-0.4,0.2-0.8,0.5-1.2c0.3-0.4,0.6-0.8,1.1-1.1c0.4-0.3,0.8-0.5,1.2-0.6
		c0.4-0.1,0.7-0.1,1,0c0.3,0.1,0.5,0.2,0.7,0.3c0.2,0.2,0.4,0.4,0.6,0.6c0.1,0.2,0.3,0.5,0.4,0.8l1.7,4.1c0.1,0.2,0.1,0.5,0,0.8
		c-0.1,0.3-0.3,0.5-0.5,0.6c-0.3,0.2-0.5,0.2-0.7,0.2c-0.2,0-0.3-0.1-0.4-0.3c0,0-0.1-0.1-0.1-0.2l-1.5-3.8
		c-0.1-0.2-0.1-0.3-0.2-0.5c-0.4-0.6-1-0.7-1.8-0.2c-1.1,0.7-1.4,1.6-0.9,2.7l1.5,3.7c0.1,0.2,0.1,0.5,0,0.8
		c-0.1,0.3-0.3,0.5-0.5,0.6C56.5,32.9,56.3,33,56,33c-0.2,0-0.3-0.1-0.4-0.3C55.6,32.6,55.6,32.6,55.6,32.5z"/>
	<path class="st1" d="M62.6,25.8c-0.7-1.4-0.8-2.8-0.4-4.1c0.4-1.3,1.3-2.3,2.6-2.9c0.4-0.2,0.7-0.3,1.1-0.3c0.4,0,0.7,0,0.9,0.1
		c0-0.4,0.3-0.7,0.7-0.9c0.3-0.1,0.5-0.1,0.7,0c0.2,0.1,0.3,0.2,0.4,0.4c0,0.1,0,0.1,0.1,0.2l1.6,6.2c0.1,0.3,0,0.5-0.1,0.8
		c-0.1,0.3-0.3,0.4-0.6,0.6c-0.3,0.1-0.5,0.1-0.7,0c-0.2-0.1-0.3-0.2-0.4-0.3c0-0.1-0.1-0.1-0.1-0.2l-0.1-0.4
		c-0.2,1.1-0.8,2-1.9,2.5c-0.8,0.4-1.5,0.4-2.2,0.1C63.5,27.1,63,26.6,62.6,25.8z M64.4,24.7c0.2,0.4,0.5,0.7,0.8,0.9
		c0.3,0.2,0.7,0.2,1.1,0c0.6-0.3,1-0.8,1.3-1.4c0.2-0.6,0.2-1.3,0-2.1L67,19.9c-0.5-0.1-1,0-1.5,0.2c-0.8,0.4-1.3,1-1.5,1.8
		C63.8,22.8,63.9,23.7,64.4,24.7z"/>
	<path class="st1" d="M71.8,23.7l-0.9-6.4c0-0.3,0-0.5,0.2-0.8c0.2-0.2,0.4-0.4,0.7-0.5c0.3-0.1,0.5-0.1,0.7,0
		c0.2,0.1,0.3,0.2,0.3,0.4c0,0,0,0.1,0,0.1l0,0.1c0.1-0.4,0.3-0.8,0.6-1.1c0.3-0.3,0.7-0.6,1.1-0.7c0.3-0.1,0.5-0.1,0.7,0
		c0.2,0.1,0.3,0.2,0.4,0.4c0.1,0.3,0.1,0.5-0.1,0.8c-0.2,0.3-0.4,0.4-0.7,0.5c-0.6,0.2-1.1,0.5-1.4,1c-0.3,0.5-0.4,1-0.3,1.6
		l0.5,3.7c0,0.3,0,0.5-0.2,0.8c-0.2,0.2-0.4,0.4-0.6,0.5c-0.3,0.1-0.5,0.1-0.7,0c-0.2-0.1-0.3-0.2-0.3-0.4
		C71.9,23.9,71.8,23.8,71.8,23.7z"/>
	<path class="st1" d="M81.6,17.2c-0.2-1.6-0.1-2.9,0.3-4.2c0.4-1.2,1.1-2.2,2.1-3c1-0.8,2.3-1.3,3.8-1.5c1.1-0.2,2-0.1,2.7,0.2
		c0.8,0.3,1.3,0.7,1.7,1.2c0.1,0.1,0.2,0.3,0.2,0.4c0,0.3,0,0.5-0.2,0.7c-0.2,0.2-0.4,0.3-0.7,0.4c-0.4,0.1-0.6,0-0.8-0.2
		c-0.4-0.4-0.8-0.6-1.3-0.7c-0.5-0.1-1-0.2-1.7-0.1c-0.7,0.1-1.3,0.3-1.8,0.6c-0.5,0.3-0.9,0.6-1.2,1c-0.3,0.4-0.5,0.9-0.7,1.4
		c-0.2,0.5-0.2,1.1-0.3,1.6c0,0.5,0,1.1,0.1,1.7c0.1,0.9,0.5,1.6,1.1,2c0.6,0.4,1.3,0.5,2.3,0.4c1.2-0.2,2.1-0.7,3-1.6
		c0.3-0.3,0.6-0.5,0.8-0.5c0.3,0,0.5,0,0.7,0.2c0.2,0.1,0.4,0.3,0.4,0.6c0,0.3,0,0.5-0.2,0.8c-0.5,0.6-1.1,1.2-2,1.6
		c-0.8,0.4-1.8,0.7-2.8,0.9c-1.5,0.2-2.8,0-3.8-0.6C82.4,19.7,81.8,18.6,81.6,17.2z"/>
	<path class="st1" d="M93.5,19.3l1.1-6.3c0-0.3,0.2-0.5,0.4-0.7c0.2-0.2,0.5-0.3,0.8-0.3c0.3,0,0.5,0.1,0.7,0.3
		c0.1,0.1,0.2,0.3,0.2,0.5c0,0,0,0.1,0,0.1l0,0.1c0.2-0.4,0.6-0.6,0.9-0.9c0.4-0.2,0.8-0.3,1.3-0.3c0.3,0,0.5,0.1,0.6,0.2
		c0.2,0.1,0.2,0.3,0.2,0.5c0,0.3-0.1,0.5-0.3,0.7c-0.2,0.2-0.5,0.3-0.8,0.3c-0.6,0-1.2,0.2-1.6,0.6c-0.4,0.4-0.7,0.8-0.8,1.4
		l-0.6,3.6c0,0.3-0.2,0.5-0.4,0.7c-0.2,0.2-0.5,0.3-0.8,0.3c-0.3,0-0.5-0.1-0.7-0.2c-0.1-0.1-0.2-0.3-0.2-0.5
		C93.5,19.5,93.5,19.4,93.5,19.3z"/>
	<path class="st1" d="M99.6,17c0.1-1,0.4-1.8,0.8-2.6c0.5-0.7,1.1-1.3,1.9-1.7c0.8-0.4,1.7-0.5,2.7-0.5c1,0.1,1.7,0.3,2.2,0.8
		c0.5,0.5,0.8,1,0.7,1.6c0,0.3-0.1,0.5-0.2,0.8c-0.1,0.2-0.3,0.4-0.5,0.7c-0.3,0.2-0.6,0.4-1.1,0.5c-0.4,0.1-1,0.2-1.8,0.3
		c-0.8,0.1-1.7,0-2.7,0c0,0.1-0.1,0.3-0.1,0.5c-0.1,0.9,0.5,1.4,1.7,1.5c0.6,0.1,1.3-0.1,2-0.4c0.2-0.1,0.5-0.1,0.6-0.1
		c0.2,0,0.4,0.1,0.6,0.3c0.2,0.2,0.2,0.4,0.2,0.6c0,0.3-0.2,0.5-0.4,0.6c-0.9,0.5-2,0.8-3.4,0.7c-1.1-0.1-1.9-0.4-2.5-1
		C99.8,19,99.5,18.1,99.6,17z M102.1,15.5c0.5,0,0.9,0.1,1.3,0.1c0.4,0,0.7,0,1,0c0.3,0,0.5-0.1,0.7-0.1c0.2-0.1,0.3-0.1,0.5-0.2
		c0.1-0.1,0.2-0.1,0.3-0.2c0.1-0.1,0.1-0.1,0.1-0.2c0-0.1,0-0.1,0-0.2c0-0.2-0.1-0.3-0.2-0.5c-0.2-0.1-0.5-0.2-0.9-0.3
		c-0.6,0-1.1,0.1-1.6,0.3C102.7,14.5,102.3,14.9,102.1,15.5z"/>
	<path class="st1" d="M108.4,18.2c0.3-1.5,1.1-2.7,2.2-3.5c1.1-0.8,2.4-1.1,3.8-0.8c0.4,0.1,0.7,0.2,1,0.4c0.3,0.2,0.5,0.4,0.7,0.6
		c0.3-0.3,0.6-0.4,1.1-0.3c0.3,0.1,0.5,0.2,0.6,0.4c0.1,0.2,0.1,0.3,0.1,0.5c0,0.1,0,0.1-0.1,0.2l-2.5,5.9c-0.1,0.3-0.3,0.4-0.5,0.6
		c-0.2,0.1-0.5,0.2-0.8,0.1c-0.3-0.1-0.5-0.2-0.6-0.4c-0.1-0.2-0.1-0.3-0.1-0.5c0-0.1,0-0.1,0.1-0.2l0.2-0.4c-0.8,0.8-1.8,1.1-3,0.8
		c-0.9-0.2-1.5-0.6-1.8-1.2C108.3,19.8,108.2,19,108.4,18.2z M110.5,18.4c-0.1,0.4-0.1,0.8,0.1,1.2c0.2,0.3,0.5,0.5,0.9,0.6
		c0.7,0.1,1.3,0,1.8-0.3c0.6-0.4,1-0.9,1.3-1.7l0.8-2c-0.3-0.4-0.8-0.6-1.3-0.7c-0.8-0.2-1.6,0-2.3,0.5
		C111.1,16.5,110.7,17.3,110.5,18.4z"/>
	<path class="st1" d="M117,22.1l3.1-5.6c0.1-0.2,0.3-0.4,0.6-0.5c0.3-0.1,0.6-0.1,0.8,0c0.3,0.1,0.4,0.2,0.5,0.5
		c0.1,0.2,0.1,0.4,0,0.6c0,0,0,0.1-0.1,0.1l-0.1,0.1c0.3-0.3,0.7-0.4,1.2-0.5c0.4-0.1,0.9-0.1,1.3,0.1c0.3,0.1,0.4,0.2,0.5,0.4
		c0.1,0.2,0.1,0.4,0,0.6c-0.1,0.3-0.3,0.4-0.5,0.6c-0.3,0.1-0.6,0.1-0.8,0c-0.6-0.2-1.2-0.2-1.7,0c-0.5,0.2-0.9,0.6-1.2,1.1
		l-1.8,3.2c-0.1,0.2-0.3,0.4-0.6,0.5c-0.3,0.1-0.6,0.1-0.8,0c-0.3-0.1-0.5-0.2-0.6-0.5c-0.1-0.2-0.1-0.3,0-0.5
		C116.9,22.2,116.9,22.2,117,22.1z"/>
	<path class="st1" d="M126.9,25.6l6.3-7.8c0.2-0.2,0.4-0.4,0.7-0.4c0.3-0.1,0.6,0,0.9,0.1c0.3,0.1,0.4,0.3,0.5,0.6
		c0,0.2,0,0.4-0.1,0.6c0,0.1-0.1,0.1-0.1,0.2l-5.7,7.1l4,2.1c0.2,0.1,0.4,0.3,0.5,0.5c0.1,0.2,0.1,0.4-0.1,0.6
		c-0.1,0.3-0.4,0.4-0.7,0.5c-0.3,0.1-0.6,0-0.9-0.1l-5-2.6c-0.3-0.1-0.4-0.3-0.5-0.6c-0.1-0.2,0-0.4,0.1-0.5
		C126.8,25.7,126.8,25.7,126.9,25.6z"/>
	<path class="st1" d="M136,28.3c0.6-0.8,1.2-1.4,2-1.8c0.8-0.4,1.6-0.6,2.5-0.5c0.9,0.1,1.7,0.4,2.5,1c0.8,0.6,1.3,1.2,1.5,1.8
		c0.2,0.7,0.2,1.2-0.2,1.7c-0.2,0.2-0.3,0.4-0.5,0.6c-0.2,0.1-0.5,0.2-0.8,0.3c-0.3,0.1-0.7,0-1.2-0.1c-0.4-0.1-1-0.3-1.7-0.7
		c-0.7-0.3-1.4-0.8-2.3-1.4c-0.1,0.1-0.2,0.2-0.3,0.4c-0.5,0.7-0.3,1.4,0.7,2.1c0.5,0.4,1.2,0.6,1.9,0.7c0.3,0,0.5,0.1,0.6,0.2
		c0.2,0.1,0.3,0.3,0.4,0.6c0,0.2,0,0.4-0.1,0.6c-0.2,0.2-0.4,0.3-0.7,0.3c-1,0-2.1-0.4-3.2-1.2c-0.9-0.6-1.4-1.4-1.6-2.2
		C135.1,30,135.3,29.2,136,28.3z M138.8,28.3c0.4,0.3,0.8,0.5,1.1,0.7c0.3,0.2,0.6,0.4,0.9,0.5c0.2,0.1,0.5,0.2,0.7,0.2
		c0.2,0.1,0.4,0.1,0.5,0.1c0.1,0,0.2,0,0.3,0c0.1,0,0.2-0.1,0.2-0.1c0,0,0.1-0.1,0.1-0.1c0.1-0.1,0.1-0.3,0-0.5
		c-0.1-0.2-0.3-0.5-0.6-0.7c-0.5-0.3-1-0.5-1.5-0.5C139.9,27.7,139.3,27.9,138.8,28.3z"/>
	<path class="st1" d="M139.8,37c0.4-0.4,0.8-0.5,1.5-0.5c0.6,0.1,1.5,0.4,2.6,0.9c-1.4-1.5-1.6-2.8-0.4-4.1c1-1,2.1-1.6,3.3-1.6
		c1.3,0,2.4,0.5,3.6,1.5c0.8,0.7,1.2,1.5,1.3,2.2c0.1,0.8-0.1,1.4-0.7,2.1c-0.3,0.3-0.6,0.6-0.9,0.9l-3.6,2.6
		c-0.9,0.7-1.9,0.9-2.8,0.7c-1-0.2-2-0.8-3-1.7c-0.6-0.5-0.9-1.1-1.1-1.7C139.3,37.9,139.4,37.4,139.8,37z M141.5,37.9
		c-0.2,0.2-0.2,0.4-0.2,0.6c0,0.2,0.2,0.5,0.5,0.7c0.5,0.5,1,0.7,1.6,0.8c0.6,0.1,1.1-0.1,1.7-0.5l1.4-1c-0.4,0.1-0.7,0.1-1.2,0
		c-0.4-0.1-0.8-0.2-1.2-0.3c-0.4-0.1-0.7-0.2-1.1-0.4c-0.4-0.1-0.7-0.2-0.9-0.2C141.8,37.7,141.6,37.8,141.5,37.9z M145.1,34.6
		c-0.7,0.7-0.6,1.5,0.2,2.2c0.3,0.3,0.6,0.5,0.9,0.6c0.3,0.1,0.6,0.2,0.9,0.2c0.3,0,0.6-0.1,0.8-0.2c0.3-0.1,0.5-0.2,0.8-0.4
		c0.2-0.2,0.4-0.3,0.6-0.5c0.7-0.7,0.6-1.4-0.2-2.2c-0.3-0.3-0.6-0.5-0.9-0.6c-0.3-0.1-0.6-0.2-0.9-0.2c-0.3,0-0.6,0.1-0.8,0.2
		c-0.3,0.1-0.5,0.2-0.8,0.4C145.5,34.2,145.2,34.4,145.1,34.6z"/>
	<path class="st1" d="M148.2,41.8l5.6-3.2c0.2-0.1,0.5-0.2,0.8-0.1c0.3,0.1,0.5,0.2,0.7,0.4c0.2,0.2,0.3,0.4,0.2,0.7
		c0,0.2-0.1,0.3-0.2,0.5c0,0-0.1,0.1-0.2,0.1l-5.6,3.2c-0.2,0.1-0.5,0.2-0.8,0.1c-0.3,0-0.5-0.2-0.7-0.4c-0.2-0.2-0.3-0.4-0.2-0.7
		c0-0.2,0.1-0.3,0.3-0.5C148.1,41.9,148.2,41.8,148.2,41.8z M156.1,37.1c0.3-0.3,0.7-0.4,1-0.4c0.4,0,0.7,0.2,1,0.6
		c0.2,0.2,0.3,0.5,0.3,0.7c0,0.2-0.1,0.4-0.3,0.6c-0.3,0.3-0.6,0.4-1,0.4c-0.4,0-0.7-0.2-1-0.6c-0.2-0.2-0.3-0.5-0.3-0.7
		C155.8,37.5,155.9,37.3,156.1,37.1z"/>
	<path class="st1" d="M151.2,44c0.2-0.1,0.4-0.2,0.6-0.1c0.2,0.1,0.4,0.2,0.6,0.4c0.1,0.2,0.2,0.4,0.2,0.6c0,0.7,0.2,1.4,0.6,2.1
		c0.3,0.4,0.5,0.6,0.8,0.8c0.3,0.2,0.5,0.2,0.7,0c0.2-0.1,0.2-0.3,0.2-0.5c0-0.2,0-0.5-0.1-0.8c-0.1-0.3-0.2-0.6-0.3-1
		c-0.1-0.4-0.2-0.7-0.2-1.1c0-0.3,0-0.7,0.1-1c0.1-0.3,0.3-0.6,0.6-0.8c0.5-0.3,1-0.5,1.5-0.4c0.5,0,1,0.2,1.4,0.6
		c0.4,0.3,0.9,0.8,1.2,1.3c0.4,0.5,0.6,1.1,0.8,1.7c0.1,0.6,0.1,1.1,0,1.4c-0.1,0.2-0.1,0.3-0.3,0.4c-0.2,0.1-0.4,0.2-0.6,0.1
		c-0.2-0.1-0.4-0.2-0.6-0.4c-0.1-0.2-0.2-0.4-0.2-0.7c0-0.6-0.1-1.2-0.5-1.7c-0.2-0.3-0.4-0.5-0.7-0.6c-0.2-0.1-0.4-0.1-0.6,0
		c-0.1,0.1-0.2,0.2-0.3,0.4c0,0.2,0,0.4,0,0.7c0.1,0.2,0.1,0.5,0.2,0.8c0.1,0.3,0.2,0.6,0.2,0.9c0.1,0.3,0.1,0.6,0.1,0.9
		c0,0.3,0,0.5-0.1,0.8c-0.1,0.3-0.3,0.5-0.5,0.6c-0.7,0.5-1.5,0.6-2.3,0.3c-0.8-0.3-1.6-1-2.3-2c-0.4-0.6-0.7-1.2-0.8-1.8
		c-0.1-0.6-0.1-1.1,0.1-1.5C150.9,44.2,151,44.1,151.2,44z"/>
	<path class="st1" d="M155.9,51.2c0.1-0.1,0.3-0.2,0.5-0.2l9.1-3c0.2-0.1,0.5-0.1,0.8,0c0.3,0.1,0.5,0.3,0.6,0.5
		c0.1,0.3,0.2,0.5,0.1,0.7c-0.1,0.2-0.2,0.3-0.3,0.4c0,0-0.1,0-0.1,0.1l-9.2,3c-0.1,0-0.2,0.1-0.2,0.2c0,0.1,0,0.2,0,0.3
		c0.1,0.2,0.1,0.4,0.1,0.6c-0.1,0.2-0.2,0.3-0.4,0.4c-0.2,0.1-0.5,0.2-0.8,0c-0.3-0.1-0.5-0.3-0.7-0.6c-0.3-0.6-0.4-1-0.3-1.5
		C155.1,51.8,155.4,51.5,155.9,51.2z"/>
	<path class="st1" d="M159.1,54.5c1.5-0.6,2.8-0.7,4.1-0.2c1.3,0.5,2.2,1.4,2.8,2.7c0.2,0.4,0.2,0.7,0.3,1.1c0,0.4,0,0.7-0.1,0.9
		c0.4,0.1,0.7,0.3,0.9,0.7c0.1,0.3,0.1,0.5,0,0.7c-0.1,0.2-0.2,0.3-0.4,0.4c-0.1,0-0.1,0-0.2,0.1l-6.3,1.3c-0.3,0.1-0.5,0-0.8-0.1
		c-0.2-0.1-0.4-0.3-0.5-0.6c-0.1-0.3-0.1-0.5,0-0.7c0.1-0.2,0.2-0.3,0.4-0.3c0.1,0,0.1,0,0.2-0.1l0.4-0.1c-1.1-0.2-1.9-0.9-2.4-2
		c-0.3-0.8-0.3-1.5,0-2.2C157.7,55.4,158.3,54.9,159.1,54.5z M160,56.4c-0.4,0.2-0.7,0.4-0.9,0.7c-0.2,0.3-0.2,0.7,0,1.1
		c0.3,0.6,0.7,1.1,1.3,1.3c0.6,0.3,1.3,0.3,2.1,0.2l2.1-0.4c0.1-0.5,0-1-0.2-1.5c-0.3-0.8-0.9-1.3-1.7-1.6
		C162,55.9,161.1,56,160,56.4z"/>
	<path class="st1" d="M160.6,63.8l6.4-0.4c0.3,0,0.5,0.1,0.7,0.2c0.2,0.2,0.4,0.4,0.5,0.7c0.1,0.3,0,0.5-0.1,0.7
		c-0.1,0.2-0.3,0.3-0.5,0.3c0,0-0.1,0-0.1,0l-0.1,0c0.4,0.2,0.8,0.4,1.1,0.7c0.3,0.3,0.5,0.7,0.6,1.1c0.1,0.3,0,0.5-0.1,0.7
		c-0.1,0.2-0.3,0.3-0.5,0.4c-0.3,0.1-0.5,0-0.8-0.2c-0.3-0.2-0.4-0.4-0.5-0.7c-0.2-0.6-0.5-1.1-0.9-1.4c-0.4-0.3-1-0.5-1.6-0.4
		l-3.7,0.2c-0.3,0-0.5-0.1-0.7-0.2c-0.2-0.2-0.4-0.4-0.5-0.7c-0.1-0.3-0.1-0.5,0.1-0.7c0.1-0.1,0.2-0.2,0.4-0.3
		C160.4,63.8,160.5,63.8,160.6,63.8z"/>
</g>
<g>
	<g>
		<path class="st2" d="M98.5,63.3c-0.2,0-0.5-0.1-0.7-0.1c-0.5-1.2-1.6-2-2.9-2.2c-0.9-0.1-1.9,0.2-2.6,0.7
			c-0.8,0.6-1.2,1.4-1.3,2.4c-0.1,0.9,0.2,1.9,0.7,2.6c0.6,0.7,1.4,1.2,2.4,1.3c0.1,0,0.3,0,0.4,0c1.2,0,2.2-0.6,2.9-1.5
			c0.2,0,0.5,0,0.7,0.1c11.8,1.4,20.3,12.1,19,24l0,0.1c0,0.2,0,0.3-0.1,0.4l-0.1,0.3h3.5c0-0.1,0-0.3,0.1-0.4
			C122.1,77.4,112.2,64.9,98.5,63.3z M95.7,64.7c0,0.3-0.2,0.6-0.5,0.8c-0.3,0.2-0.6,0.3-0.9,0.3c-0.3,0-0.6-0.2-0.8-0.5
			c-0.2-0.3-0.3-0.6-0.3-0.9c0.1-0.6,0.6-1.1,1.2-1.1c0,0,0.1,0,0.1,0C95.3,63.4,95.8,64,95.7,64.7z"/>
		<path class="st2" d="M126.6,77.4c0.7-0.6,1.2-1.4,1.3-2.4c0.2-2-1.2-3.7-3.1-4c-2-0.2-3.7,1.2-4,3.1c-0.2,2,1.2,3.7,3.1,4
			c0.1,0,0.3,0,0.4,0c1.4,4.2,1.8,8.5,1.3,13c0,0.1,0,0.1,0,0.1l-0.1,0.3h2.4c0-0.1,0-0.1,0-0.1C128.6,86.6,128.1,81.9,126.6,77.4z
			 M125.6,74.7c0,0.3-0.2,0.6-0.5,0.8c-0.3,0.2-0.6,0.3-0.9,0.2c-0.7-0.1-1.2-0.7-1.1-1.4c0.1-0.6,0.6-1.1,1.2-1.1c0,0,0.1,0,0.1,0
			c0.3,0,0.6,0.2,0.8,0.5C125.6,74.1,125.7,74.4,125.6,74.7z"/>
		<path class="st2" d="M152.5,69.4c0.6-0.6,1-1.3,1.1-2.2c0.2-2-1.2-3.7-3.1-4c-2-0.2-3.7,1.2-4,3.1c-0.1,0.9,0.2,1.9,0.7,2.6
			c0.6,0.7,1.4,1.2,2.4,1.3c0.1,0,0.3,0,0.4,0c0.1,0,0.2,0,0.3,0c2.2,6.8,3.1,13.8,2.7,21l0,0.1h2.3C155.8,84,154.8,76.5,152.5,69.4
			z M151.3,67c0,0.3-0.2,0.6-0.5,0.8c-0.3,0.2-0.6,0.3-0.9,0.3c-0.3,0-0.6-0.2-0.8-0.5c-0.2-0.3-0.3-0.6-0.3-0.9
			c0.1-0.6,0.6-1.1,1.2-1.1c0,0,0.1,0,0.1,0C150.8,65.7,151.3,66.3,151.3,67z"/>
		<path class="st2" d="M45,67.6c-0.7,1-1.8,1.6-3,1.6c-0.1,0-0.1,0-0.2,0c-2.6,7.1-3.7,14.6-3.3,22.2l0,0.1h-2.3
			c-0.4-8,0.8-15.7,3.5-23.2c-0.6-0.5-0.9-1.1-1.1-1.9c-0.2-0.9,0-1.9,0.5-2.6c0.6-1,1.8-1.6,3-1.6c0.7,0,1.3,0.2,1.9,0.6
			C45.6,63.8,46,66,45,67.6z"/>
		<path class="st2" d="M58.2,56.7c-0.2,1.8-1.7,3.1-3.5,3.1c-0.1,0-0.3,0-0.4,0c0,0,0,0,0,0c-4.4,6.5-7.2,14.1-8.1,22
			c-0.4,3.2-0.4,6.4-0.2,9.5l0,0.2h-3.5c-0.2-3.3-0.2-6.7,0.2-10.1c1-8.5,4-16.7,8.8-23.7c-0.2-0.6-0.3-1.2-0.3-1.8
			c0.1-0.9,0.6-1.8,1.3-2.4c0.7-0.6,1.7-0.8,2.6-0.7c0.9,0.1,1.8,0.6,2.3,1.3C58,54.9,58.3,55.8,58.2,56.7z"/>
		<path class="st2" d="M80.9,73.9c-0.2,1.8-1.7,3.1-3.5,3.1c-0.1,0-0.2,0-0.4,0c-1.6,2.6-2.6,5.6-3,8.7c-0.2,1.8-0.2,3.7,0.1,5.6
			l0,0.3h-3.5c-0.3-2.1-0.3-4.2-0.1-6.2c0.4-3.7,1.7-7.2,3.6-10.3C74,74.3,73.9,73.7,74,73c0.2-1.9,2-3.3,3.9-3.1
			c0.9,0.1,1.8,0.6,2.4,1.3C80.8,72,81,72.9,80.9,73.9z"/>
		<g>
			<path class="st2" d="M136.5,63c-0.2,1.8-1.7,3.1-3.5,3.1c-0.1,0-0.3,0-0.4,0c-1.9-0.2-3.3-2-3.1-3.9c0.1-0.4,0.2-0.8,0.4-1.2
				c-7.3-9.3-17.8-15.2-29.6-16.6c-11.7-1.4-23.2,1.9-32.5,9.2C58.6,61,52.7,71.4,51.4,83.1c-0.3,2.8-0.4,5.6-0.2,8.3l0,0.1h-2.3
				c-0.2-2.8-0.1-5.7,0.2-8.6c1.4-12.3,7.6-23.4,17.3-31.1c9.7-7.7,21.9-11.1,34.2-9.7c12.4,1.4,23.3,7.6,31,17.3
				c0.6-0.2,1.2-0.3,1.8-0.3c0.9,0.1,1.8,0.6,2.3,1.3C136.3,61.2,136.6,62.1,136.5,63z"/>
			<path class="st2" d="M120.6,40.7c-0.1-0.6-0.3-1.3-0.7-1.8c-0.6-0.7-1.4-1.2-2.4-1.3c-2-0.2-3.7,1.2-4,3.1c-0.2,2,1.2,3.7,3.1,4
				c0.1,0,0.3,0,0.4,0c0.8,0,1.6-0.3,2.2-0.8c16.8,9.2,26.9,27.3,25.9,46.5c0,0.3,0,0.7-0.1,1l0,0.2h3.5c0-0.3,0.1-0.6,0.1-1
				C149.8,70,138.8,50.4,120.6,40.7z M118.3,41.3c0,0.3-0.2,0.6-0.5,0.8c-0.3,0.2-0.6,0.3-0.9,0.3c-0.7-0.1-1.2-0.7-1.1-1.4
				c0.1-0.6,0.6-1.1,1.2-1.1c0,0,0.1,0,0.1,0c0.3,0,0.6,0.2,0.8,0.5C118.3,40.6,118.3,40.9,118.3,41.3z"/>
			<path class="st2" d="M137.2,82.6c-0.4-0.5-1-0.9-1.6-1.1c-2.8-18.1-17.3-32.1-35.6-34.3c-15.3-1.8-30.6,5.4-39,18.3
				c-1.8,0-3.3,1.3-3.5,3.2c-0.1,0.9,0.2,1.9,0.7,2.6c0.6,0.7,1.4,1.2,2.4,1.3c0.1,0,0.3,0,0.4,0c1.8,0,3.3-1.4,3.5-3.2
				c0.1-0.8-0.1-1.6-0.5-2.3C71.9,55.5,85.7,49,99.7,50.7c16.8,2,30.1,14.9,32.5,31.4c-0.7,0.6-1.1,1.4-1.2,2.3
				c-0.2,1.9,1.2,3.7,3.1,3.9c0.1,0,0.3,0,0.4,0c1.8,0,3.3-1.3,3.5-3.1C138.1,84.3,137.8,83.4,137.2,82.6z M62.4,69.3
				c0,0.3-0.2,0.6-0.5,0.8c-0.3,0.2-0.6,0.3-0.9,0.2c-0.3,0-0.6-0.2-0.8-0.5c-0.2-0.3-0.3-0.6-0.3-0.9c0.1-0.6,0.6-1.1,1.2-1.1
				c0,0,0.1,0,0.1,0c0.3,0,0.6,0.2,0.8,0.5C62.3,68.6,62.4,68.9,62.4,69.3z"/>
		</g>
		<path class="st2" d="M108.2,57.7c-0.2,1.8-1.7,3.1-3.5,3.1c-0.1,0-0.3,0-0.4,0c-0.9-0.1-1.8-0.6-2.3-1.3c-0.4-0.5-0.7-1.1-0.7-1.7
			c-0.7-0.1-1.5-0.2-2.2-0.3c-8.1-0.9-16,1.3-22.4,6.3c-6.4,5-10.4,12.2-11.3,20.3c-0.3,2.4-0.3,4.9,0,7.3l0,0.2H63
			c-0.3-2.5-0.3-5.1,0-7.7c1-8.7,5.4-16.4,12.2-21.9c6.9-5.4,15.4-7.8,24.1-6.8c0.8,0.1,1.6,0.2,2.4,0.4c0.7-1.1,2-1.8,3.4-1.6
			C107,54.1,108.4,55.8,108.2,57.7z"/>
		<path class="st2" d="M140.9,45.7c-0.6-0.7-1.4-1.2-2.4-1.3c-0.7-0.1-1.3,0.1-1.9,0.3c-9.2-8.6-20.8-13.9-33.4-15.4
			c-10.4-1.2-21,0.4-30.5,4.5c0,0-0.1-0.1-0.1-0.1c-0.6-0.7-1.4-1.2-2.4-1.3c-0.9-0.1-1.9,0.2-2.6,0.7c-0.8,0.6-1.2,1.4-1.3,2.4
			c-0.2,2,1.2,3.7,3.1,4c0.1,0,0.3,0,0.4,0c1.8,0,3.3-1.4,3.5-3.2c0-0.1,0-0.2,0-0.3c9.2-4.1,19.5-5.7,29.6-4.5
			c12.1,1.4,23.1,6.5,32,14.7c-0.2,0.3-0.3,0.7-0.3,1.1c-0.1,0.9,0.1,1.8,0.7,2.6c0.6,0.7,1.4,1.2,2.3,1.3c0.1,0,0.3,0,0.4,0
			c1.8,0,3.3-1.3,3.5-3.1C141.7,47.3,141.4,46.4,140.9,45.7z M71,36.1c0,0.3-0.2,0.6-0.5,0.8c-0.3,0.2-0.6,0.3-0.9,0.3
			c-0.7-0.1-1.2-0.7-1.1-1.4c0.1-0.6,0.6-1.1,1.2-1.1c0,0,0.1,0,0.2,0c0.3,0,0.6,0.2,0.8,0.5C71,35.4,71.1,35.7,71,36.1z"/>
		<path class="st2" d="M99.1,34.1c-0.6-0.7-1.4-1.2-2.3-1.3c-0.9-0.1-1.8,0.1-2.6,0.7c-0.3,0.3-0.6,0.5-0.8,0.9c-0.2,0-0.3,0-0.5,0
			c-10.2,0.5-20,3.9-28.3,9.9c-0.3-0.1-0.7-0.3-1.1-0.3c-2-0.2-3.7,1.2-4,3.1c-0.2,2,1.2,3.7,3.1,4c0.1,0,0.3,0,0.4,0
			c1.8,0,3.3-1.4,3.5-3.2c0-0.3,0-0.6,0-0.9c7.8-5.6,16.9-8.8,26.5-9.2c0.1,0,0.1,0,0.2,0c0.1,0.2,0.2,0.4,0.4,0.6
			c0.6,0.7,1.4,1.2,2.3,1.3c0.1,0,0.3,0,0.4,0c1.8,0,3.3-1.3,3.5-3.1C99.9,35.8,99.7,34.9,99.1,34.1z M64.3,47.8
			c0,0.3-0.2,0.6-0.5,0.8c-0.3,0.2-0.6,0.3-0.9,0.3c-0.7-0.1-1.2-0.7-1.1-1.4c0.1-0.6,0.6-1.1,1.2-1.1c0,0,0.1,0,0.1,0
			C63.9,46.5,64.3,47.1,64.3,47.8z"/>
	</g>
	<g>
		<g>
			<g>
				<g>
					<path d="M144.7,95c-2.2,23.5-20.9,42.3-44.7,44.3l-0.6,0.1v-5.8c20.8-1.7,37.3-18,39.5-38.5H144.7z"/>
				</g>
			</g>
			<g>
				<g>
					<path d="M92.3,133.5v5.8l-0.6-0.1c-23.9-2-42.5-20.8-44.7-44.3h5.8C54.9,115.5,71.4,131.7,92.3,133.5z"/>
				</g>
			</g>
			<g>
				<g>
					<path d="M130.2,103.4l-0.3,1c-4.2,13.5-15.9,23.2-29.8,24.9l-0.7,0.1l0-5.8c11.4-1.4,21.1-9.2,24.7-20.1H130.2z"/>
				</g>
			</g>
			<g>
				<g>
					<path d="M92.3,129.4l-0.7-0.1c-14-1.7-25.7-11.4-29.8-24.9l-0.3-1h6.1c3.7,10.9,13.3,18.8,24.7,20.1L92.3,129.4z"/>
				</g>
			</g>
			<g>
				<g>
					<path d="M155.5,100.2c-5.5,26.8-28.2,46.7-55.7,48.5l-0.5,0v-5.8c24.5-1.6,44.8-19,50.3-42.7H155.5z"/>
				</g>
			</g>
			<g>
				<g>
					<path d="M92.3,142.9v5.8l-0.5,0c-27.5-1.8-50.1-21.6-55.7-48.5H42C47.4,123.9,67.8,141.3,92.3,142.9z"/>
				</g>
			</g>
		</g>
		<g>
			<g>
				<g>
					<rect x="73.9" y="104.4" class="st3" width="43.9" height="4.5"/>
				</g>
			</g>
			<path class="st4" d="M112.2,84.2c0-1.8-1.5-3.3-3.3-3.3c0,0-0.1,0-0.1,0c-1.7-4.4-5.4-7.8-9.9-9.1c-0.4-1.4-1.6-2.4-3.1-2.4
				c-1.3,0-2.4,0.7-2.9,1.8c-7.7,0.9-13.6,7.4-13.6,15.2c0,2.3,0.5,4.5,1.5,6.5c-0.4,0.5-0.7,1.2-0.7,2c0,1.8,1.5,3.3,3.3,3.3
				c0.4,0,0.8-0.1,1.2-0.2c2.8,2.4,6.3,3.8,10.1,3.8c8.2,0,14.9-6.4,15.3-14.5C111.3,86.9,112.2,85.6,112.2,84.2z M105.6,94.1v-4.7
				l1.9-2.4c0.2,0.1,0.4,0.2,0.5,0.2C107.9,89.8,107,92.2,105.6,94.1L105.6,94.1z M95.8,71.3c0.7,0,1.3,0.6,1.3,1.3
				c0,0.7-0.6,1.3-1.3,1.3c-0.7,0-1.3-0.6-1.3-1.3C94.5,71.9,95.1,71.3,95.8,71.3z M88.4,82c0.7,0,1.3,0.6,1.3,1.3
				c0,0.7-0.6,1.3-1.3,1.3c-0.7,0-1.3-0.6-1.3-1.3C87.1,82.6,87.7,82,88.4,82z M87.7,75v5.2c-1.5,0.3-2.5,1.6-2.5,3.2
				c0,1.8,1.5,3.3,3.3,3.3c1.8,0,3.2-1.5,3.2-3.3c0-1.4-0.8-2.5-2-3V74c1-0.4,2-0.7,3-0.8c0.2,1.2,1.1,2.2,2.2,2.5V80l-2.2,2v4.8
				l5.5,6.7v5.9c-0.4,0.1-0.7,0.2-1.1,0.2v-6l-3.4-4.9h-6L84.8,92c-0.4-0.2-0.9-0.3-1.4-0.3c-0.3,0-0.7,0.1-1,0.2
				c-0.7-1.7-1.1-3.6-1.1-5.4c0-0.1,0-0.2,0-0.2l1.6,0.9l1.5,3.4l1.8-0.8l-1.8-4l-2.9-1.6C82.1,80.3,84.5,77,87.7,75z M82,95
				c0-0.7,0.6-1.3,1.3-1.3c0.7,0,1.3,0.6,1.3,1.3c0,0.7-0.6,1.3-1.3,1.3C82.6,96.3,82,95.7,82,95z M94,99.8v-4.3l-3-3.8L89.5,93
				l2.6,3.3v3.4c-2.2-0.4-4.2-1.4-6-2.8c0.3-0.5,0.5-1.1,0.5-1.8c0-0.6-0.2-1.1-0.4-1.6l2.4-2.8h4.1l2.5,3.6v5.7c-0.2,0-0.3,0-0.5,0
				C94.4,99.8,94.2,99.8,94,99.8z M100.1,98.7v-5.9l-5.5-6.7v-3.3l2.2-2v-5.1c1-0.3,1.8-1.1,2.1-2c1.2,0.4,2.3,1,3.4,1.7l-3.1,2.5
				v5.4c-1.3,0.4-2.3,1.6-2.3,3.1c0,1.8,1.5,3.3,3.3,3.3c1.8,0,3.3-1.5,3.3-3.3c0-1.5-1-2.7-2.3-3.1v-4.5l2.7-2.1
				c1.4,1.3,2.6,3,3.3,4.8c-0.8,0.6-1.4,1.6-1.4,2.6c0,0.5,0.1,1,0.4,1.5l-2.4,3.1v6l0.7,0.9C103.2,96.9,101.7,98,100.1,98.7z
				 M100.2,85.1c0.7,0,1.3,0.6,1.3,1.3c0,0.7-0.6,1.3-1.3,1.3c-0.7,0-1.3-0.6-1.3-1.3C98.8,85.7,99.4,85.1,100.2,85.1z M109,85.5
				c-0.7,0-1.3-0.6-1.3-1.3c0-0.7,0.6-1.3,1.3-1.3c0.7,0,1.3,0.6,1.3,1.3C110.3,84.9,109.7,85.5,109,85.5z"/>
		</g>
	</g>
</g>
<g>
	<path class="st5" d="M209.1,56.3c2.2,0,3.9,0.7,5.1,2c0.6,0.8,1.2,1.9,1.6,3.3h6.4c-0.1-1.9-0.8-3.8-2.1-5.7
		c-2.4-3.4-6.1-5.1-11.2-5.1c-3.8,0-7,1.3-9.5,3.8c-2.8,2.9-4.3,7-4.3,12.4c0,5,1.3,8.9,3.8,11.7c2.5,2.8,5.9,4.3,10.3,4.3
		c3.5,0,6.4-1.1,8.7-3.2c2.3-2.1,3.7-4.8,4.2-8.2h-6.4c-0.4,1.6-1,2.8-1.6,3.6c-1.2,1.5-2.8,2.2-5,2.2c-2.1,0-3.9-0.9-5.3-2.6
		c-1.4-1.7-2.1-4.3-2.1-7.8s0.7-6.1,2-8C205,57.2,206.8,56.3,209.1,56.3z"/>
	<polygon class="st5" points="246.8,42.7 240.2,42.7 236.2,48.9 240.4,48.9 	"/>
	<path class="st5" d="M236.1,51.4l-11,30.8h6.7l2.1-6.3h11.3l2,6.3h7l-10.9-30.8H236.1z M235.7,70.5l4-12.1l3.9,12.1H235.7z"/>
	<path class="st5" d="M273,75.6l-5.6-24.2H258v30.8h6V61.3c0-0.6,0-1.4,0-2.5c0-1.1,0-1.9,0-2.5l5.8,25.8h6.2l5.8-25.8
		c0,0.6,0,1.4,0,2.5c0,1.1,0,1.9,0,2.5v20.8h6V51.4h-9.2L273,75.6z"/>
	<path class="st5" d="M309.8,51.4h-7.3l-11,30.8h6.7l2.1-6.3h11.3l2,6.3h7L309.8,51.4z M302.1,70.5l4-12.1l3.9,12.1H302.1z"/>
	<path class="st5" d="M349.8,81.4c-0.6-0.4-1-1-1.2-1.8c-0.1-0.5-0.2-1.5-0.2-2.9v-2.1c0-2.2-0.3-3.8-0.9-4.8c-0.6-1-1.6-1.9-3-2.4
		c1.7-0.6,2.9-1.6,3.7-3c0.7-1.4,1.1-2.8,1.1-4.3c0-1.2-0.2-2.3-0.6-3.2c-0.4-0.9-0.9-1.8-1.5-2.6c-0.8-0.9-1.7-1.7-2.9-2.1
		s-2.8-0.8-4.9-0.8h-14.7v30.8h6.3V70.1h6.3c1.8,0,3,0.3,3.7,1c0.7,0.7,1,2,1,3.9l0,2.9c0,0.9,0.1,1.8,0.3,2.6
		c0.1,0.4,0.2,1,0.4,1.6h7.1V81.4z M341,64.5c-0.7,0.3-1.7,0.5-3.1,0.5H331v-8.3h7.1c1.3,0,2.3,0.2,3,0.5c1.2,0.6,1.8,1.9,1.8,3.8
		C342.8,62.7,342.2,63.9,341,64.5z"/>
	<path class="st5" d="M382.4,82.1l-10.9-30.8h-7.3l-11,30.8h6.7l2.1-6.3h11.3l2,6.3H382.4z M363.8,70.5l4-12.1l3.9,12.1H363.8z"/>
	<path class="st5" d="M420.2,76.4c1.6-2.8,2.5-6.3,2.5-10.4c0-1.6-0.2-3.3-0.6-5.1c-0.4-1.8-1.1-3.4-2.2-5c-1.3-1.9-3.1-3.2-5.2-3.9
		c-1.3-0.4-2.9-0.6-4.8-0.7h-13.3v30.8h13.3C414.5,82.1,417.9,80.2,420.2,76.4z M415.1,72.3c-1.2,3-3.3,4.5-6.4,4.5h-5.9V56.7h5.9
		c2.9,0,4.9,0.8,5.9,2.5c1,1.7,1.5,4.1,1.5,7.2C416.1,68.7,415.8,70.7,415.1,72.3z"/>
	<polygon class="st5" points="450.9,76.6 433.9,76.6 433.9,68.7 448.9,68.7 448.9,63.4 433.9,63.4 433.9,56.8 450.2,56.8 
		450.2,51.4 427.6,51.4 427.6,82.1 450.9,82.1 	"/>
	<path class="st5" d="M474.2,70.1h6.3c1.8,0,3,0.3,3.7,1s1,2,1,3.9l0,2.9c0,0.9,0.1,1.8,0.3,2.6c0.1,0.4,0.2,1,0.4,1.6h7.1v-0.8
		c-0.6-0.4-1-1-1.2-1.8c-0.1-0.5-0.2-1.5-0.2-2.9v-2.1c0-2.2-0.3-3.8-0.9-4.8c-0.6-1-1.6-1.9-3-2.4c1.7-0.6,2.9-1.6,3.7-3
		c0.7-1.4,1.1-2.8,1.1-4.3c0-1.2-0.2-2.3-0.6-3.2c-0.4-0.9-0.9-1.8-1.5-2.6c-0.8-0.9-1.7-1.7-2.9-2.1c-1.1-0.5-2.7-0.8-4.9-0.8H468
		v30.8h6.3V70.1z M474.2,56.7h7.1c1.3,0,2.3,0.2,3,0.5c1.2,0.6,1.8,1.9,1.8,3.8c0,1.7-0.6,2.9-1.8,3.5c-0.7,0.3-1.7,0.5-3.1,0.5
		h-6.9V56.7z"/>
	<polygon class="st5" points="522.2,76.6 505.1,76.6 505.1,68.7 520.1,68.7 520.1,63.4 505.1,63.4 505.1,56.8 521.4,56.8 
		521.4,51.4 498.9,51.4 498.9,82.1 522.2,82.1 	"/>
	<path class="st5" d="M550.5,61.1c0-3.3-0.9-5.8-2.7-7.4c-1.8-1.6-4.2-2.4-7.3-2.4h-13.2v30.8h6.4V71.1h6.4c3.3,0,5.9-0.8,7.7-2.3
		C549.6,67.3,550.5,64.8,550.5,61.1z M542.9,64.7c-0.8,0.7-2,1.1-3.4,1.1h-5.8v-9.1h5.8c1.5,0,2.6,0.3,3.4,1
		c0.8,0.7,1.2,1.8,1.2,3.4C544.1,62.8,543.7,63.9,542.9,64.7z"/>
	<path class="st5" d="M579.7,79.6c-0.1-0.5-0.2-1.5-0.2-2.9v-2.1c0-2.2-0.3-3.8-0.9-4.8c-0.6-1-1.6-1.9-3-2.4c1.7-0.6,2.9-1.6,3.7-3
		c0.7-1.4,1.1-2.8,1.1-4.3c0-1.2-0.2-2.3-0.6-3.2c-0.4-0.9-0.9-1.8-1.5-2.6c-0.8-0.9-1.7-1.7-2.9-2.1c-1.1-0.5-2.7-0.8-4.9-0.8
		h-14.7v30.8h6.3V70.1h6.3c1.8,0,3,0.3,3.7,1s1,2,1,3.9l0,2.9c0,0.9,0.1,1.8,0.3,2.6c0.1,0.4,0.2,1,0.4,1.6h7.1v-0.8
		C580.3,81,579.9,80.4,579.7,79.6z M572.1,64.5c-0.7,0.3-1.7,0.5-3.1,0.5h-6.9v-8.3h7.1c1.3,0,2.3,0.2,3,0.5
		c1.2,0.6,1.8,1.9,1.8,3.8C573.9,62.7,573.3,63.9,572.1,64.5z"/>
	<polygon class="st5" points="610,76.6 593,76.6 593,68.7 607.9,68.7 607.9,63.4 593,63.4 593,56.8 609.3,56.8 609.3,51.4 
		586.7,51.4 586.7,82.1 610,82.1 	"/>
	<path class="st5" d="M639,73.1c0-2.7-0.9-4.8-2.7-6.3c-1.2-0.9-3-1.7-5.3-2.2l-5.4-1.3c-2.1-0.5-3.4-0.9-4.1-1.3
		c-1-0.5-1.5-1.4-1.5-2.5c0-1.2,0.5-2.1,1.5-2.8c1-0.7,2.4-1,4.1-1c1.5,0,2.8,0.3,3.8,0.8c1.5,0.8,2.4,2.1,2.5,3.9h6.2
		c-0.1-3.3-1.3-5.8-3.6-7.5s-5.1-2.6-8.4-2.6c-3.9,0-6.9,0.9-8.9,2.7c-2,1.8-3,4.1-3,6.9c0,3,1,5.2,3.1,6.7c1.2,0.8,3.5,1.6,6.7,2.4
		l3.3,0.7c1.9,0.4,3.4,0.9,4.3,1.4c0.9,0.6,1.3,1.3,1.3,2.4c0,1.7-0.9,2.9-2.7,3.6c-1,0.3-2.2,0.5-3.8,0.5c-2.6,0-4.4-0.6-5.5-1.9
		c-0.6-0.7-1-1.7-1.2-3.2h-6.1c0,3.2,1.2,5.7,3.5,7.5c2.3,1.8,5.5,2.7,9.6,2.7c4,0,7-0.9,9.2-2.8C637.9,78.3,639,75.9,639,73.1z"/>
	<polygon class="st5" points="667,76.6 650,76.6 650,68.7 664.9,68.7 664.9,63.4 650,63.4 650,56.8 666.3,56.8 666.3,51.4 
		643.7,51.4 643.7,82.1 667,82.1 	"/>
	<polygon class="st5" points="690.9,72.8 678.7,51.4 671.9,51.4 671.9,82.1 677.9,82.1 677.9,60.3 690.4,82.1 696.8,82.1 
		696.8,51.4 690.9,51.4 	"/>
	<polygon class="st5" points="709.5,82.1 716,82.1 716,56.8 725.2,56.8 725.2,51.4 700.3,51.4 700.3,56.8 709.5,56.8 	"/>
	<path class="st5" d="M732.4,75.8h11.3l2,6.3h7l-10.9-30.8h-7.3l-11,30.8h6.7L732.4,75.8z M738.2,58.4l3.9,12.1h-7.9L738.2,58.4z"/>
	<polygon class="st5" points="775.5,72.8 763.3,51.4 756.6,51.4 756.6,82.1 762.6,82.1 762.6,60.3 775.1,82.1 781.5,82.1 
		781.5,51.4 775.5,51.4 	"/>
	<polygon class="st5" points="785,56.8 794.2,56.8 794.2,82.1 800.7,82.1 800.7,56.8 809.9,56.8 809.9,51.4 785,51.4 	"/>
	<polygon class="st5" points="820.1,68.7 835,68.7 835,63.4 820.1,63.4 820.1,56.8 836.4,56.8 836.4,51.4 813.8,51.4 813.8,82.1 
		837.1,82.1 837.1,76.6 820.1,76.6 	"/>
	<path class="st5" d="M863.4,66.9c-1.2-0.9-3-1.7-5.3-2.2l-5.4-1.3c-2.1-0.5-3.4-0.9-4.1-1.3c-1-0.5-1.5-1.4-1.5-2.5
		c0-1.2,0.5-2.1,1.5-2.8c1-0.7,2.4-1,4.1-1c1.5,0,2.8,0.3,3.8,0.8c1.5,0.8,2.4,2.1,2.5,3.9h6.2c-0.1-3.3-1.3-5.8-3.6-7.5
		s-5.1-2.6-8.4-2.6c-3.9,0-6.9,0.9-8.9,2.7c-2,1.8-3,4.1-3,6.9c0,3,1,5.2,3.1,6.7c1.2,0.8,3.5,1.6,6.7,2.4l3.3,0.7
		c1.9,0.4,3.4,0.9,4.3,1.4c0.9,0.6,1.3,1.3,1.3,2.4c0,1.7-0.9,2.9-2.7,3.6c-1,0.3-2.2,0.5-3.8,0.5c-2.6,0-4.4-0.6-5.5-1.9
		c-0.6-0.7-1-1.7-1.2-3.2h-6.1c0,3.2,1.2,5.7,3.5,7.5c2.3,1.8,5.5,2.7,9.6,2.7c4,0,7-0.9,9.2-2.8c2.2-1.9,3.3-4.2,3.3-7
		C866.1,70.4,865.2,68.3,863.4,66.9z"/>
	<path class="st5" d="M309.6,99.6c-1.7-1.5-3.9-2.2-6.7-2.2h-12.2v28.5h5.9v-10.2h5.9c3.1,0,5.5-0.7,7.1-2.1
		c1.7-1.4,2.5-3.8,2.5-7.1C312.1,103.4,311.3,101.1,309.6,99.6z M305.1,109.7c-0.8,0.7-1.8,1-3.2,1h-5.4v-8.4h5.4
		c1.4,0,2.4,0.3,3.2,0.9c0.8,0.6,1.1,1.7,1.1,3.2C306.2,108,305.8,109.1,305.1,109.7z"/>
	<path class="st5" d="M339.1,123.6c-0.1-0.5-0.2-1.3-0.2-2.6V119c0-2-0.3-3.5-0.8-4.5c-0.5-1-1.5-1.7-2.8-2.2
		c1.6-0.5,2.7-1.5,3.4-2.8c0.7-1.3,1-2.6,1-4c0-1.1-0.2-2.1-0.5-3c-0.4-0.9-0.8-1.7-1.4-2.4c-0.7-0.9-1.6-1.5-2.7-2
		c-1-0.4-2.5-0.7-4.5-0.7H317v28.5h5.8v-11.2h5.8c1.7,0,2.8,0.3,3.4,0.9c0.6,0.6,0.9,1.8,0.9,3.6l0,2.6c0,0.8,0.1,1.7,0.3,2.5
		c0.1,0.4,0.2,0.9,0.4,1.5h6.6v-0.7C339.6,124.8,339.3,124.3,339.1,123.6z M332.1,109.6c-0.6,0.3-1.6,0.5-2.9,0.5h-6.4v-7.6h6.6
		c1.2,0,2.1,0.2,2.8,0.5c1.1,0.6,1.6,1.8,1.6,3.5C333.8,108,333.2,109,332.1,109.6z"/>
	<path class="st5" d="M358,96.6c-4.1,0-7.2,1.1-9.3,3.3c-2.9,2.6-4.3,6.5-4.3,11.7c0,5.1,1.4,9,4.3,11.7c2.1,2.2,5.3,3.3,9.3,3.3
		c4.1,0,7.2-1.1,9.3-3.3c2.9-2.7,4.3-6.6,4.3-11.7c0-5.2-1.4-9.1-4.3-11.7C365.2,97.7,362.1,96.6,358,96.6z M363.6,119
		c-1.4,1.7-3.3,2.6-5.6,2.6c-2.4,0-4.2-0.9-5.6-2.6c-1.4-1.7-2.1-4.2-2.1-7.4c0-3.2,0.7-5.7,2.1-7.4c1.4-1.7,3.3-2.6,5.6-2.6
		c2.4,0,4.2,0.9,5.6,2.6c1.4,1.7,2.1,4.2,2.1,7.4C365.7,114.8,365,117.3,363.6,119z"/>
	<polygon class="st5" points="386.6,119 380.4,97.4 374.1,97.4 383.7,125.9 389.3,125.9 399,97.4 392.8,97.4 	"/>
	<rect x="402.1" y="97.4" class="st5" width="5.9" height="28.5"/>
	<polygon class="st5" points="431,117.3 419.7,97.4 413.4,97.4 413.4,125.9 419,125.9 419,105.7 430.6,125.9 436.5,125.9 
		436.5,97.4 431,97.4 	"/>
	<path class="st5" d="M453.8,102c2.1,0,3.7,0.6,4.7,1.9c0.6,0.7,1.1,1.7,1.5,3.1h5.9c-0.1-1.8-0.7-3.5-1.9-5.3
		c-2.2-3.1-5.7-4.7-10.4-4.7c-3.5,0-6.5,1.2-8.7,3.5c-2.6,2.7-4,6.5-4,11.5c0,4.6,1.2,8.2,3.5,10.8c2.3,2.6,5.5,3.9,9.5,3.9
		c3.3,0,6-1,8.1-2.9c2.1-1.9,3.4-4.5,3.9-7.6h-5.9c-0.4,1.5-0.9,2.6-1.5,3.3c-1.1,1.4-2.6,2-4.7,2c-2,0-3.6-0.8-4.9-2.4
		c-1.3-1.6-1.9-4-1.9-7.2s0.6-5.7,1.8-7.4S451.7,102,453.8,102z"/>
	<rect x="470.2" y="97.4" class="st5" width="5.9" height="28.5"/>
	<path class="st5" d="M489.8,97.4l-10.2,28.5h6.2l1.9-5.8h10.5l1.9,5.8h6.4l-10.1-28.5H489.8z M489.4,115.1l3.7-11.2l3.6,11.2H489.4
		z"/>
	<path class="st5" d="M541.2,101.7c-1.2-1.8-2.9-3-4.8-3.6c-1.2-0.4-2.6-0.6-4.4-0.6h-12.3v28.5H532c4.3,0,7.5-1.8,9.5-5.3
		c1.5-2.6,2.3-5.8,2.3-9.6c0-1.5-0.2-3.1-0.5-4.7C542.9,104.6,542.2,103.1,541.2,101.7z M536.9,116.8c-1.1,2.8-3.1,4.2-5.9,4.2h-5.5
		v-18.6h5.5c2.7,0,4.5,0.8,5.4,2.3c0.9,1.6,1.4,3.8,1.4,6.7C537.8,113.5,537.5,115.3,536.9,116.8z"/>
	<polygon class="st5" points="554.3,113.5 568.1,113.5 568.1,108.5 554.3,108.5 554.3,102.5 569.3,102.5 569.3,97.4 548.4,97.4 
		548.4,125.9 570,125.9 570,120.8 554.3,120.8 	"/>
	<path class="st5" d="M599.4,119.8l-5.2-22.4h-8.7v28.5h5.5v-19.2c0-0.6,0-1.3,0-2.3c0-1,0-1.8,0-2.3l5.4,23.9h5.8l5.4-23.9
		c0,0.5,0,1.3,0,2.3s0,1.8,0,2.3v19.2h5.5V97.4h-8.6L599.4,119.8z"/>
	<rect x="618.1" y="97.4" class="st5" width="5.9" height="28.5"/>
	<path class="st5" d="M649.2,111.8c-1.1-0.9-2.7-1.6-4.9-2.1l-5-1.2c-1.9-0.5-3.2-0.8-3.8-1.2c-0.9-0.5-1.4-1.3-1.4-2.3
		c0-1.1,0.5-2,1.4-2.6c0.9-0.6,2.2-0.9,3.8-0.9c1.4,0,2.6,0.2,3.5,0.7c1.4,0.7,2.2,1.9,2.3,3.6h5.7c-0.1-3-1.2-5.3-3.4-6.9
		s-4.7-2.4-7.8-2.4c-3.6,0-6.4,0.8-8.3,2.5c-1.9,1.7-2.8,3.8-2.8,6.4c0,2.8,1,4.8,2.9,6.2c1.1,0.8,3.2,1.5,6.2,2.2l3.1,0.7
		c1.8,0.4,3.1,0.8,4,1.3c0.8,0.5,1.2,1.2,1.2,2.2c0,1.6-0.8,2.7-2.5,3.3c-0.9,0.3-2.1,0.5-3.5,0.5c-2.4,0-4.1-0.6-5.1-1.8
		c-0.5-0.6-0.9-1.6-1.1-2.9h-5.7c0,3,1.1,5.3,3.2,7s5.1,2.5,8.8,2.5c3.7,0,6.5-0.9,8.5-2.6c2-1.7,3-3.9,3-6.5
		C651.7,115,650.9,113.1,649.2,111.8z"/>
	<rect x="655.4" y="97.4" class="st5" width="5.9" height="28.5"/>
	<path class="st5" d="M679.5,96.6c-4.1,0-7.2,1.1-9.3,3.3c-2.9,2.6-4.3,6.5-4.3,11.7c0,5.1,1.4,9,4.3,11.7c2.1,2.2,5.3,3.3,9.3,3.3
		c4.1,0,7.2-1.1,9.3-3.3c2.9-2.7,4.3-6.6,4.3-11.7c0-5.2-1.4-9.1-4.3-11.7C686.7,97.7,683.6,96.6,679.5,96.6z M685.1,119
		c-1.4,1.7-3.3,2.6-5.6,2.6s-4.2-0.9-5.6-2.6c-1.4-1.7-2.1-4.2-2.1-7.4c0-3.2,0.7-5.7,2.1-7.4c1.4-1.7,3.3-2.6,5.6-2.6
		s4.2,0.9,5.6,2.6c1.4,1.7,2.1,4.2,2.1,7.4C687.2,114.8,686.5,117.3,685.1,119z"/>
	<polygon class="st5" points="715.1,117.3 703.8,97.4 697.6,97.4 697.6,125.9 703.1,125.9 703.1,105.7 714.7,125.9 720.6,125.9 
		720.6,97.4 715.1,97.4 	"/>
	<polygon class="st5" points="732.2,113.5 746,113.5 746,108.5 732.2,108.5 732.2,102.5 747.3,102.5 747.3,97.4 726.4,97.4 
		726.4,125.9 747.9,125.9 747.9,120.8 732.2,120.8 	"/>
	<path class="st5" d="M772.2,111.8c-1.1-0.9-2.7-1.6-4.9-2.1l-5-1.2c-1.9-0.5-3.2-0.8-3.8-1.2c-0.9-0.5-1.4-1.3-1.4-2.3
		c0-1.1,0.5-2,1.4-2.6c0.9-0.6,2.2-0.9,3.8-0.9c1.4,0,2.6,0.2,3.5,0.7c1.4,0.7,2.2,1.9,2.3,3.6h5.7c-0.1-3-1.2-5.3-3.4-6.9
		s-4.7-2.4-7.8-2.4c-3.6,0-6.4,0.8-8.3,2.5c-1.9,1.7-2.8,3.8-2.8,6.4c0,2.8,1,4.8,2.9,6.2c1.1,0.8,3.2,1.5,6.2,2.2l3.1,0.7
		c1.8,0.4,3.1,0.8,4,1.3c0.8,0.5,1.2,1.2,1.2,2.2c0,1.6-0.8,2.7-2.5,3.3c-0.9,0.3-2.1,0.5-3.5,0.5c-2.4,0-4.1-0.6-5.1-1.8
		c-0.5-0.6-0.9-1.6-1.1-2.9h-5.7c0,3,1.1,5.3,3.2,7s5.1,2.5,8.8,2.5c3.7,0,6.5-0.9,8.5-2.6c2-1.7,3-3.9,3-6.5
		C774.8,115,773.9,113.1,772.2,111.8z"/>
</g>
</svg>
